<?xml version="1.0" encoding="utf-8"?>
<!-- Generator: Adobe Illustrator 15.1.0, SVG Export Plug-In . SVG Version: 6.00 Build 0)  -->
<!DOCTYPE svg PUBLIC "-//W3C//DTD SVG 1.1//EN" "http://www.w3.org/Graphics/SVG/1.1/DTD/svg11.dtd">
<svg version="1.1" id="Layer_1" xmlns="http://www.w3.org/2000/svg" xmlns:xlink="http://www.w3.org/1999/xlink" x="0px" y="0px"
	 width="53px" height="35px" viewBox="0 0 53 35" enable-background="new 0 0 53 35" xml:space="preserve">
<g>
	<g>
		<defs>
			<rect id="SVGID_1_" width="53.116" height="35.467"/>
		</defs>
		<clipPath id="SVGID_2_">
			<use xlink:href="#SVGID_1_"  overflow="visible"/>
		</clipPath>
		<path clip-path="url(#SVGID_2_)" fill="#F59331" d="M23.92,14.297h-6.873c0.091-2.932,1.924-4.674,5.865-5.957L20.896,0
			C14.572,1.833,9.348,4.216,5.408,7.332C0.642,10.998,0,15.214,0,21.443v14.022h23.92V14.297z"/>
	</g>
	<g>
		<defs>
			<rect id="SVGID_3_" width="53.116" height="35.467"/>
		</defs>
		<clipPath id="SVGID_4_">
			<use xlink:href="#SVGID_3_"  overflow="visible"/>
		</clipPath>
		<path clip-path="url(#SVGID_4_)" fill="#F59331" d="M53.116,14.297H46.15c0.093-2.932,1.925-4.674,5.865-5.957L50,0
			c-6.323,1.833-11.456,4.216-15.396,7.332c-4.766,3.666-5.498,7.882-5.498,14.111v14.022h24.011V14.297z"/>
	</g>
</g>
</svg>
