<?xml version="1.0" encoding="utf-8"?>
<!-- Generator: Adobe Illustrator 15.1.0, SVG Export Plug-In . SVG Version: 6.00 Build 0)  -->
<!DOCTYPE svg PUBLIC "-//W3C//DTD SVG 1.1//EN" "http://www.w3.org/Graphics/SVG/1.1/DTD/svg11.dtd">
<svg version="1.1" id="Layer_1" xmlns="http://www.w3.org/2000/svg" xmlns:xlink="http://www.w3.org/1999/xlink" x="0px" y="0px"
	 width="53px" height="35px" viewBox="0 0 53 35" enable-background="new 0 0 53 35" xml:space="preserve">
<g>
	<g>
		<defs>
			<rect id="SVGID_1_" width="53.116" height="35.467"/>
		</defs>
		<clipPath id="SVGID_2_">
			<use xlink:href="#SVGID_1_"  overflow="visible"/>
		</clipPath>
		<path clip-path="url(#SVGID_2_)" fill="#F59331" d="M29.195,21.17h6.873c-0.09,2.932-1.924,4.674-5.864,5.957l2.017,8.34
			c6.323-1.833,11.547-4.216,15.487-7.332c4.767-3.666,5.408-7.882,5.408-14.112V0H29.195V21.17z"/>
	</g>
	<g>
		<defs>
			<rect id="SVGID_3_" width="53.116" height="35.467"/>
		</defs>
		<clipPath id="SVGID_4_">
			<use xlink:href="#SVGID_3_"  overflow="visible"/>
		</clipPath>
		<path clip-path="url(#SVGID_4_)" fill="#F59331" d="M0,21.17h6.965c-0.092,2.932-1.924,4.674-5.865,5.957l2.017,8.34
			c6.323-1.833,11.456-4.216,15.396-7.332c4.766-3.666,5.499-7.882,5.499-14.112V0H0V21.17z"/>
	</g>
</g>
</svg>
